<?xml version="1.0" encoding="UTF-8" ?>
<!DOCTYPE svg PUBLIC "-//W3C//DTD SVG 1.1//EN" "http://www.w3.org/Graphics/SVG/1.1/DTD/svg11.dtd">
<svg width="1152pt" height="1152pt" viewBox="0 0 1152 1152" version="1.1" xmlns="http://www.w3.org/2000/svg">
<g id="#6bad27ff">
<path fill="#6bad27" opacity="1.00" d=" M 655.09 190.53 C 726.18 199.12 794.37 234.52 840.25 289.81 C 857.55 310.86 871.82 334.73 880.62 360.57 C 876.30 377.74 872.08 395.13 864.07 411.04 C 855.49 429.05 842.78 445.44 825.94 456.41 C 823.57 448.29 821.32 440.13 819.15 431.96 C 829.95 416.52 838.65 399.64 844.93 381.87 C 847.74 373.64 850.61 365.37 852.00 356.75 C 840.58 379.04 832.55 403.43 816.39 422.98 C 805.01 392.19 792.63 361.68 777.08 332.73 C 785.91 320.10 795.41 306.82 796.80 290.96 C 789.93 303.46 785.17 317.92 773.39 326.89 C 760.60 305.01 746.56 283.65 729.12 265.16 C 733.69 274.60 739.92 283.09 745.09 292.20 C 733.55 291.83 722.16 289.62 710.63 289.27 C 720.97 293.39 732.14 294.30 743.03 296.05 C 745.74 296.58 749.02 296.83 750.52 299.52 C 766.70 323.75 779.58 350.07 790.37 377.09 C 772.79 377.12 755.44 373.46 738.66 368.47 C 732.66 366.75 726.83 364.46 720.75 363.04 C 742.07 377.46 768.26 381.90 793.46 383.67 C 802.72 407.21 810.81 431.23 817.31 455.68 C 816.51 456.48 815.73 457.29 814.95 458.10 C 795.74 456.36 777.16 450.29 759.69 442.31 C 743.82 434.79 728.04 426.68 714.43 415.46 C 702.57 406.33 692.36 395.33 681.00 385.63 C 680.67 386.84 680.35 388.05 680.08 389.27 L 679.83 390.29 C 653.76 327.54 646.27 257.72 655.09 190.53 M 666.21 223.73 C 665.49 229.78 664.31 236.29 666.89 242.08 C 669.12 246.89 674.64 248.47 678.78 251.20 C 689.98 257.45 700.94 264.67 713.33 268.32 C 712.04 263.93 709.37 260.12 706.15 256.92 C 699.79 250.61 693.16 244.57 686.86 238.19 C 680.71 232.45 674.02 227.01 666.21 223.73 M 765.37 263.06 C 765.64 274.87 767.55 286.56 769.39 298.20 C 771.75 296.95 773.81 295.11 774.45 292.41 C 777.38 283.11 780.68 273.93 783.57 264.62 C 784.11 262.27 785.38 259.49 783.63 257.34 C 779.84 251.69 773.45 248.75 767.66 245.62 C 765.65 251.19 765.42 257.20 765.37 263.06 M 673.06 301.07 C 674.00 308.58 674.62 316.33 677.57 323.39 C 678.60 326.47 681.94 327.40 684.64 328.51 C 694.28 332.05 704.07 335.22 713.91 338.19 C 722.14 340.71 730.08 344.05 738.24 346.77 C 746.95 349.76 755.65 353.49 764.99 353.78 C 745.78 336.50 723.60 322.73 700.34 311.62 C 691.55 307.41 682.75 302.81 673.06 301.07 M 832.43 306.30 C 824.59 326.97 822.79 349.25 820.65 371.07 C 820.29 374.06 820.20 377.07 820.27 380.08 C 831.43 361.75 837.63 341.01 846.58 321.60 C 843.55 316.85 841.54 311.38 837.71 307.19 C 836.39 306.02 833.46 303.60 832.43 306.30 M 694.89 381.33 C 697.07 383.43 699.38 385.39 701.85 387.16 C 730.11 407.97 761.49 425.37 795.68 434.05 C 794.44 427.70 792.37 421.56 790.55 415.37 C 789.84 413.35 789.38 410.69 786.93 410.17 C 763.34 402.22 739.62 394.58 716.35 385.70 C 709.52 382.98 702.30 380.92 694.89 381.33 Z" />
</g>
<g id="#89bf3dff">
<path fill="#89bf3d" opacity="1.00" d=" M 666.21 223.73 C 674.02 227.01 680.71 232.45 686.86 238.19 C 693.16 244.57 699.79 250.61 706.15 256.92 C 709.37 260.12 712.04 263.93 713.33 268.32 C 700.94 264.67 689.98 257.45 678.78 251.20 C 674.64 248.47 669.12 246.89 666.89 242.08 C 664.31 236.29 665.49 229.78 666.21 223.73 Z" />
</g>
<g id="#87be3cff">
<path fill="#87be3c" opacity="1.00" d=" M 765.37 263.06 C 765.42 257.20 765.65 251.19 767.66 245.62 C 773.45 248.75 779.84 251.69 783.63 257.34 C 785.38 259.49 784.11 262.27 783.57 264.62 C 780.68 273.93 777.38 283.11 774.45 292.41 C 773.81 295.11 771.75 296.95 769.39 298.20 C 767.55 286.56 765.64 274.87 765.37 263.06 Z" />
</g>
<g id="#266001ff">
<path fill="#266001" opacity="1.00" d=" M 745.09 292.20 C 739.92 283.09 733.69 274.60 729.12 265.16 C 746.56 283.65 760.60 305.01 773.39 326.89 C 785.17 317.92 789.93 303.46 796.80 290.96 C 795.41 306.82 785.91 320.10 777.08 332.73 C 792.63 361.68 805.01 392.19 816.39 422.98 C 832.55 403.43 840.58 379.04 852.00 356.75 C 850.61 365.37 847.74 373.64 844.93 381.87 C 838.65 399.64 829.95 416.52 819.15 431.96 C 821.32 440.13 823.57 448.29 825.94 456.41 C 829.18 466.98 832.46 477.55 834.85 488.36 C 853.18 566.94 862.03 647.48 865.80 728.00 C 867.33 750.65 864.97 773.35 866.02 796.01 C 867.94 800.83 868.35 805.99 868.86 811.11 C 866.89 808.82 864.32 806.28 861.00 806.96 C 858.41 806.86 857.63 809.77 856.78 811.67 C 855.06 815.61 854.68 820.44 851.58 823.62 C 847.75 824.58 842.96 819.91 839.47 823.45 C 837.95 827.54 840.00 831.79 841.22 835.69 C 844.64 844.89 847.38 854.32 850.35 863.68 C 851.24 866.49 851.44 869.91 849.23 872.19 C 845.48 876.14 839.88 877.29 834.84 878.68 C 826.41 880.63 818.55 884.53 809.99 885.97 C 804.04 886.98 798.05 887.94 792.00 888.04 C 785.19 888.10 778.73 890.53 772.00 891.20 C 763.97 892.14 756.01 893.75 748.35 896.37 C 740.86 898.99 732.87 899.28 725.22 901.18 C 721.86 901.96 718.48 902.77 715.03 902.89 C 702.86 903.11 690.78 904.69 678.65 905.56 C 664.20 907.62 649.48 907.38 635.15 910.36 C 627.45 911.15 619.70 911.35 611.99 911.97 C 603.28 911.65 594.66 913.42 585.95 913.01 C 579.58 912.72 573.24 914.06 566.87 913.39 C 559.55 912.64 552.15 913.47 544.85 912.38 C 532.61 911.50 520.26 911.81 508.08 913.35 C 492.45 914.75 476.72 913.59 461.05 914.06 C 449.84 914.51 439.20 909.59 428.01 910.07 C 423.17 910.25 421.08 917.23 424.64 920.29 C 427.80 922.99 432.16 923.23 436.07 923.98 C 439.72 924.46 443.27 925.60 446.96 925.78 C 450.60 925.22 453.80 921.65 457.65 923.43 C 452.94 924.03 447.83 926.88 447.11 932.01 C 446.64 932.00 445.70 931.98 445.22 931.97 C 442.28 932.32 439.31 932.49 436.35 932.41 C 431.67 932.01 427.08 930.91 422.77 929.05 C 420.25 928.05 417.59 927.33 414.87 927.54 C 412.03 927.98 408.99 929.07 406.26 927.59 C 402.81 925.78 398.72 925.66 395.41 923.61 C 391.21 920.87 391.04 914.05 395.01 911.05 C 398.91 908.07 404.04 908.88 408.61 908.79 C 410.67 906.27 413.50 903.96 416.99 904.47 C 421.23 905.13 425.45 905.87 429.73 906.30 C 431.70 904.39 434.01 902.28 437.00 902.57 C 439.54 902.45 441.48 904.54 443.92 904.88 C 451.94 905.56 460.00 906.17 468.06 905.62 C 471.03 905.29 474.00 904.79 477.01 904.85 C 489.34 904.92 501.68 904.88 514.01 904.82 C 518.02 904.86 521.96 905.90 525.99 905.78 C 538.67 905.76 551.35 905.78 564.02 905.78 C 567.75 905.89 570.84 903.42 574.36 902.57 C 580.09 900.44 586.32 902.90 592.11 901.13 C 598.20 899.08 604.81 900.21 610.95 898.40 C 614.72 895.38 619.02 892.48 624.04 892.39 C 626.34 892.34 628.15 893.96 629.97 895.16 C 634.68 895.96 639.21 897.80 643.97 898.19 C 656.65 897.04 669.44 898.68 682.09 896.98 C 687.32 896.27 692.64 896.61 697.85 895.67 C 703.14 894.97 708.55 895.24 713.78 893.95 C 724.38 891.93 735.26 892.55 745.99 892.18 C 752.13 892.92 757.86 890.16 763.95 890.02 C 770.97 888.63 778.29 888.75 785.07 886.28 C 790.93 884.25 797.13 883.58 803.18 882.34 C 810.03 881.51 816.53 878.94 823.43 878.35 C 823.69 878.30 824.23 878.21 824.49 878.17 C 825.78 876.80 826.95 875.34 828.16 873.90 C 832.10 874.97 836.54 876.72 840.41 874.40 C 844.24 872.86 845.21 868.29 844.52 864.61 C 843.30 856.85 842.22 849.05 840.48 841.38 C 836.34 826.25 833.93 810.57 828.12 795.94 C 827.26 793.10 824.50 791.98 821.92 791.20 C 815.72 772.39 807.69 754.24 799.00 736.45 C 792.16 720.75 781.09 707.48 771.45 693.47 C 751.18 666.37 727.65 641.57 701.00 620.66 C 689.10 628.84 676.24 635.63 662.63 640.46 C 639.40 648.81 614.60 652.09 589.99 652.21 C 571.86 652.12 553.64 650.93 535.82 647.51 C 562.18 646.53 588.71 648.02 614.92 644.29 C 642.62 640.41 670.43 631.86 692.86 614.62 C 683.59 606.34 673.07 599.63 662.59 593.00 C 626.43 570.15 588.15 550.32 547.65 536.34 C 545.26 535.35 542.68 535.58 540.30 536.45 C 525.25 541.43 509.69 545.14 493.85 546.37 C 485.52 546.92 477.07 547.15 468.84 545.52 C 490.15 544.99 511.44 541.52 531.64 534.63 C 532.84 534.09 534.35 533.76 535.05 532.52 C 529.20 528.05 521.89 526.37 515.07 523.97 C 499.74 518.72 484.34 513.68 468.81 509.07 C 476.56 510.07 484.03 512.46 491.57 514.41 C 525.08 523.59 557.62 535.87 590.16 547.94 C 585.97 524.85 571.99 505.50 559.87 486.01 C 578.94 501.83 590.44 524.85 597.64 548.14 C 598.33 550.23 598.99 552.74 601.37 553.49 C 634.87 568.25 667.18 585.86 697.32 606.67 C 716.63 619.86 734.67 634.80 752.00 650.47 C 754.98 628.30 752.79 605.14 743.34 584.71 C 738.06 572.47 730.33 561.50 724.63 549.49 C 734.48 559.67 742.20 571.78 748.60 584.37 C 758.38 603.98 763.49 626.03 762.25 647.98 C 762.49 653.37 760.96 659.71 764.83 664.18 C 770.04 670.75 776.14 676.56 781.28 683.20 C 790.41 695.05 799.70 706.82 807.85 719.39 C 819.41 738.36 830.01 758.07 837.94 778.83 C 837.68 782.57 836.75 786.42 837.88 790.11 C 839.17 794.51 840.77 798.84 841.47 803.39 C 842.28 807.33 842.53 811.63 844.86 815.05 C 846.68 818.19 851.99 817.77 853.65 814.69 C 854.99 812.71 854.85 810.24 854.80 807.98 C 854.51 803.09 854.93 798.12 853.70 793.33 C 852.04 788.34 857.54 784.11 855.87 779.10 C 854.96 777.25 853.35 775.89 851.99 774.40 C 851.39 775.63 850.80 776.88 850.26 778.15 C 850.10 768.75 850.35 759.35 850.50 749.96 C 851.18 742.16 851.05 734.26 850.17 726.48 C 849.08 696.61 848.13 666.71 845.65 636.90 C 842.10 590.32 835.88 543.96 827.09 498.08 C 824.45 483.82 820.77 469.76 817.31 455.68 C 810.81 431.23 802.72 407.21 793.46 383.67 C 768.26 381.90 742.07 377.46 720.75 363.04 C 726.83 364.46 732.66 366.75 738.66 368.47 C 755.44 373.46 772.79 377.12 790.37 377.09 C 779.58 350.07 766.70 323.75 750.52 299.52 C 749.02 296.83 745.74 296.58 743.03 296.05 C 732.14 294.30 720.97 293.39 710.63 289.27 C 722.16 289.62 733.55 291.83 745.09 292.20 Z" />
<path fill="#266001" opacity="1.00" d=" M 775.38 779.33 C 782.94 785.34 790.35 792.96 791.94 802.90 C 793.85 812.47 790.41 821.90 787.00 830.69 C 795.89 835.90 804.38 841.79 812.19 848.51 C 812.43 849.56 812.63 850.63 812.71 851.73 C 810.22 854.36 806.11 855.65 803.14 853.00 C 798.69 848.86 794.04 844.97 789.47 840.98 C 785.58 837.34 780.02 836.75 775.55 834.13 C 768.48 828.86 760.56 822.01 751.05 823.95 C 736.66 827.26 727.00 839.21 715.87 847.92 C 721.36 834.52 734.87 827.67 746.36 820.23 C 728.12 812.98 708.43 810.44 688.95 809.43 C 681.57 808.75 675.93 814.41 670.72 818.77 C 663.51 825.23 657.73 833.05 650.99 839.96 C 653.84 833.84 657.62 828.19 661.89 822.98 C 666.05 818.37 670.59 814.11 674.69 809.44 C 662.71 808.53 650.84 811.19 638.87 810.70 C 663.44 805.14 688.80 805.74 713.80 806.89 C 713.05 802.76 712.39 798.61 712.02 794.43 C 714.68 798.68 716.93 803.16 719.20 807.63 C 739.73 811.65 759.62 818.22 779.29 825.24 C 780.41 809.81 778.16 794.46 775.38 779.33 Z" />
</g>
<g id="#88bd3bff">
<path fill="#88bd3b" opacity="1.00" d=" M 673.06 301.07 C 682.75 302.81 691.55 307.41 700.34 311.62 C 723.60 322.73 745.78 336.50 764.99 353.78 C 755.65 353.49 746.95 349.76 738.24 346.77 C 730.08 344.05 722.14 340.71 713.91 338.19 C 704.07 335.22 694.28 332.05 684.64 328.51 C 681.94 327.40 678.60 326.47 677.57 323.39 C 674.62 316.33 674.00 308.58 673.06 301.07 Z" />
</g>
<g id="#87bf3cff">
<path fill="#87bf3c" opacity="1.00" d=" M 832.43 306.30 C 833.46 303.60 836.39 306.02 837.71 307.19 C 841.54 311.38 843.55 316.85 846.58 321.60 C 837.63 341.01 831.43 361.75 820.27 380.08 C 820.20 377.07 820.29 374.06 820.65 371.07 C 822.79 349.25 824.59 326.97 832.43 306.30 Z" />
</g>
<g id="#4c8418ff">
<path fill="#4c8418" opacity="1.00" d=" M 880.62 360.57 C 885.88 375.09 888.51 390.55 888.82 405.99 C 888.72 423.91 884.89 442.47 874.26 457.24 C 864.77 470.91 850.64 481.68 834.33 485.61 C 834.46 486.29 834.72 487.67 834.85 488.36 C 832.46 477.55 829.18 466.98 825.94 456.41 C 842.78 445.44 855.49 429.05 864.07 411.04 C 872.08 395.13 876.30 377.74 880.62 360.57 Z" />
</g>
<g id="#87bd3bff">
<path fill="#87bd3b" opacity="1.00" d=" M 694.89 381.33 C 702.30 380.92 709.52 382.98 716.35 385.70 C 739.62 394.58 763.34 402.22 786.93 410.17 C 789.38 410.69 789.84 413.35 790.55 415.37 C 792.37 421.56 794.44 427.70 795.68 434.05 C 761.49 425.37 730.11 407.97 701.85 387.16 C 699.38 385.39 697.07 383.43 694.89 381.33 Z" />
<path fill="#87bd3b" opacity="1.00" d=" M 457.82 458.87 C 460.52 458.50 463.25 458.26 465.99 458.25 C 476.86 458.13 487.77 457.62 498.64 458.48 C 500.99 458.50 502.86 460.01 504.32 461.72 C 513.91 472.63 522.41 484.45 530.39 496.58 C 533.29 501.15 537.04 505.20 539.42 510.10 C 539.03 512.97 535.74 511.83 534.00 511.00 C 518.78 504.28 504.65 495.37 490.82 486.21 C 479.29 477.79 466.85 470.13 457.82 458.87 Z" />
</g>
<g id="#4c8419ff">
<path fill="#4c8419" opacity="1.00" d=" M 681.00 385.63 C 692.36 395.33 702.57 406.33 714.43 415.46 C 728.04 426.68 743.82 434.79 759.69 442.31 C 777.16 450.29 795.74 456.36 814.95 458.10 C 815.73 457.29 816.51 456.48 817.31 455.68 C 820.77 469.76 824.45 483.82 827.09 498.08 C 826.66 496.39 826.25 494.68 825.85 493.00 C 813.91 503.29 796.95 506.02 781.87 502.49 C 768.26 499.73 756.48 491.85 745.82 483.29 C 715.63 458.89 694.50 424.94 680.08 389.27 C 680.35 388.05 680.67 386.84 681.00 385.63 Z" />
</g>
<g id="#67aa25ff">
<path fill="#67aa25" opacity="1.00" d=" M 337.38 465.53 C 425.17 439.84 519.86 434.85 608.95 457.01 C 646.16 466.34 682.36 480.18 715.67 499.30 C 749.10 518.53 779.48 543.69 802.38 574.88 C 800.81 574.89 799.24 574.92 797.68 574.94 C 800.71 593.75 802.56 612.94 800.21 631.93 C 798.17 650.20 792.20 668.28 781.28 683.20 C 776.14 676.56 770.04 670.75 764.83 664.18 C 760.96 659.71 762.49 653.37 762.25 647.98 C 763.49 626.03 758.38 603.98 748.60 584.37 C 742.20 571.78 734.48 559.67 724.63 549.49 C 730.33 561.50 738.06 572.47 743.34 584.71 C 752.79 605.14 754.98 628.30 752.00 650.47 C 734.67 634.80 716.63 619.86 697.32 606.67 C 667.18 585.86 634.87 568.25 601.37 553.49 C 598.99 552.74 598.33 550.23 597.64 548.14 C 590.44 524.85 578.94 501.83 559.87 486.01 C 571.99 505.50 585.97 524.85 590.16 547.94 C 557.62 535.87 525.08 523.59 491.57 514.41 C 484.03 512.46 476.56 510.07 468.81 509.07 C 484.34 513.68 499.74 518.72 515.07 523.97 C 521.89 526.37 529.20 528.05 535.05 532.52 C 534.35 533.76 532.84 534.09 531.64 534.63 C 511.44 541.52 490.15 544.99 468.84 545.52 C 477.07 547.15 485.52 546.92 493.85 546.37 C 509.69 545.14 525.25 541.43 540.30 536.45 C 542.68 535.58 545.26 535.35 547.65 536.34 C 588.15 550.32 626.43 570.15 662.59 593.00 C 658.65 596.56 654.84 600.53 649.91 602.70 C 643.76 600.46 639.03 594.35 632.14 594.31 C 625.05 595.61 618.34 598.45 611.59 600.91 C 557.09 587.72 501.25 578.05 444.99 579.24 C 435.18 579.77 425.23 579.64 415.65 582.10 C 421.23 589.44 428.83 594.88 435.84 600.75 C 432.91 603.54 430.34 606.79 426.87 608.94 C 424.45 608.70 422.19 607.73 419.92 606.96 C 417.78 609.93 415.59 612.86 413.31 615.72 C 387.93 590.17 364.69 561.94 348.47 529.61 C 338.86 510.75 331.99 490.49 328.39 469.63 C 331.31 468.11 334.20 466.47 337.38 465.53 M 457.82 458.87 C 466.85 470.13 479.29 477.79 490.82 486.21 C 504.65 495.37 518.78 504.28 534.00 511.00 C 535.74 511.83 539.03 512.97 539.42 510.10 C 537.04 505.20 533.29 501.15 530.39 496.58 C 522.41 484.45 513.91 472.63 504.32 461.72 C 502.86 460.01 500.99 458.50 498.64 458.48 C 487.77 457.62 476.86 458.13 465.99 458.25 C 463.25 458.26 460.52 458.50 457.82 458.87 M 627.01 480.06 C 630.41 493.88 638.80 505.68 646.68 517.27 C 657.80 531.81 668.26 546.89 680.30 560.69 C 687.39 568.39 694.50 576.24 703.07 582.32 C 702.37 558.91 696.92 536.01 693.06 513.01 C 692.55 510.78 692.52 508.04 690.46 506.61 C 686.49 503.50 681.77 501.56 677.12 499.75 C 666.42 495.81 655.79 491.61 645.72 486.24 C 639.88 483.15 633.65 480.62 627.01 480.06 M 365.71 512.15 C 369.12 517.98 372.91 523.63 377.43 528.66 C 378.49 530.08 380.39 529.94 381.97 530.07 C 394.63 530.27 407.14 527.97 419.68 526.56 C 427.74 525.73 435.83 525.09 443.92 524.64 C 448.68 524.33 453.55 523.31 457.41 520.33 C 451.65 519.10 445.77 518.75 439.95 517.90 C 415.37 514.51 390.61 510.39 365.71 512.15 Z" />
</g>
<g id="#85bb39ff">
<path fill="#85bb39" opacity="1.00" d=" M 627.01 480.06 C 633.65 480.62 639.88 483.15 645.72 486.24 C 655.79 491.61 666.42 495.81 677.12 499.75 C 681.77 501.56 686.49 503.50 690.46 506.61 C 692.52 508.04 692.55 510.78 693.06 513.01 C 696.92 536.01 702.37 558.91 703.07 582.32 C 694.50 576.24 687.39 568.39 680.30 560.69 C 668.26 546.89 657.80 531.81 646.68 517.27 C 638.80 505.68 630.41 493.88 627.01 480.06 Z" />
</g>
<g id="#86bc3aff">
<path fill="#86bc3a" opacity="1.00" d=" M 365.71 512.15 C 390.61 510.39 415.37 514.51 439.95 517.90 C 445.77 518.75 451.65 519.10 457.41 520.33 C 453.55 523.31 448.68 524.33 443.92 524.64 C 435.83 525.09 427.74 525.73 419.68 526.56 C 407.14 527.97 394.63 530.27 381.97 530.07 C 380.39 529.94 378.49 530.08 377.43 528.66 C 372.91 523.63 369.12 517.98 365.71 512.15 Z" />
</g>
<g id="#427a13ff">
<path fill="#427a13" opacity="1.00" d=" M 797.68 574.94 C 799.24 574.92 800.81 574.89 802.38 574.88 C 821.78 601.86 834.46 635.61 829.47 669.17 C 826.79 687.41 819.21 704.88 807.85 719.39 C 799.70 706.82 790.41 695.05 781.28 683.20 C 792.20 668.28 798.17 650.20 800.21 631.93 C 802.56 612.94 800.71 593.75 797.68 574.94 Z" />
</g>
<g id="#7fb636ff">
<path fill="#7fb636" opacity="1.00" d=" M 415.65 582.10 C 425.23 579.64 435.18 579.77 444.99 579.24 C 501.25 578.05 557.09 587.72 611.59 600.91 C 620.63 603.17 629.91 604.75 638.59 608.27 C 634.79 610.69 630.53 612.33 626.06 612.94 C 580.38 619.31 534.45 623.80 488.92 631.23 C 483.44 631.98 477.23 633.13 472.39 629.70 C 459.60 620.85 447.92 610.52 435.84 600.75 C 428.83 594.88 421.23 589.44 415.65 582.10 Z" />
</g>
<g id="#5ea11dff">
<path fill="#5ea11d" opacity="1.00" d=" M 662.59 593.00 C 673.07 599.63 683.59 606.34 692.86 614.62 C 670.43 631.86 642.62 640.41 614.92 644.29 C 588.71 648.02 562.18 646.53 535.82 647.51 C 553.64 650.93 571.86 652.12 589.99 652.21 C 614.60 652.09 639.40 648.81 662.63 640.46 C 676.24 635.63 689.10 628.84 701.00 620.66 C 727.65 641.57 751.18 666.37 771.45 693.47 C 756.27 697.67 740.61 699.94 725.02 702.00 C 658.81 709.94 591.46 703.22 526.91 687.31 C 517.06 685.11 507.06 680.44 496.82 683.22 C 466.83 663.57 438.84 640.90 413.31 615.72 C 415.59 612.86 417.78 609.93 419.92 606.96 C 422.19 607.73 424.45 608.70 426.87 608.94 C 430.34 606.79 432.91 603.54 435.84 600.75 C 447.92 610.52 459.60 620.85 472.39 629.70 C 477.23 633.13 483.44 631.98 488.92 631.23 C 534.45 623.80 580.38 619.31 626.06 612.94 C 630.53 612.33 634.79 610.69 638.59 608.27 C 629.91 604.75 620.63 603.17 611.59 600.91 C 618.34 598.45 625.05 595.61 632.14 594.31 C 639.03 594.35 643.76 600.46 649.91 602.70 C 654.84 600.53 658.65 596.56 662.59 593.00 M 694.09 654.25 C 662.20 660.05 630.49 666.77 598.83 673.69 C 612.25 678.89 626.96 677.55 641.05 678.57 C 651.03 679.47 661.05 679.08 671.05 679.28 C 690.56 679.39 710.32 679.27 729.39 674.63 C 724.96 668.45 719.00 663.59 712.89 659.15 C 709.94 657.06 707.29 654.45 703.98 652.92 C 700.63 652.75 697.35 653.67 694.09 654.25 Z" />
</g>
<g id="#7cb331ff">
<path fill="#7cb331" opacity="1.00" d=" M 694.09 654.25 C 697.35 653.67 700.63 652.75 703.98 652.92 C 707.29 654.45 709.94 657.06 712.89 659.15 C 719.00 663.59 724.96 668.45 729.39 674.63 C 710.32 679.27 690.56 679.39 671.05 679.28 C 661.05 679.08 651.03 679.47 641.05 678.57 C 626.96 677.55 612.25 678.89 598.83 673.69 C 630.49 666.77 662.20 660.05 694.09 654.25 Z" />
</g>
<g id="#3e7710ff">
<path fill="#3e7710" opacity="1.00" d=" M 496.82 683.22 C 507.06 680.44 517.06 685.11 526.91 687.31 C 591.46 703.22 658.81 709.94 725.02 702.00 C 740.61 699.94 756.27 697.67 771.45 693.47 C 781.09 707.48 792.16 720.75 799.00 736.45 C 788.85 753.35 770.92 765.05 751.48 768.00 C 735.10 763.36 718.06 761.03 701.04 761.17 C 691.55 761.26 682.12 762.43 672.72 763.60 C 609.69 748.22 550.47 719.38 496.82 683.22 Z" />
</g>
<g id="#356119da">
<path fill="#356119" opacity="0.85" d=" M 850.17 726.48 C 851.05 734.26 851.18 742.16 850.50 749.96 C 849.69 742.18 850.09 734.30 850.17 726.48 Z" />
</g>
<g id="#559915ff">
<path fill="#559915" opacity="1.00" d=" M 672.72 763.60 C 682.12 762.43 691.55 761.26 701.04 761.17 C 718.06 761.03 735.10 763.36 751.48 768.00 C 759.83 770.83 768.16 774.16 775.38 779.33 C 778.16 794.46 780.41 809.81 779.29 825.24 C 759.62 818.22 739.73 811.65 719.20 807.63 C 716.93 803.16 714.68 798.68 712.02 794.43 C 712.39 798.61 713.05 802.76 713.80 806.89 C 688.80 805.74 663.44 805.14 638.87 810.70 C 650.84 811.19 662.71 808.53 674.69 809.44 C 670.59 814.11 666.05 818.37 661.89 822.98 C 656.85 821.38 651.69 820.18 646.43 819.63 C 629.30 818.45 612.76 824.94 597.78 832.63 C 604.71 835.88 612.24 837.69 619.84 838.38 C 614.61 842.34 608.65 845.20 603.08 848.63 C 590.64 842.94 578.56 836.48 566.41 830.19 C 569.77 820.56 576.16 812.41 583.14 805.15 C 606.57 780.73 639.93 768.74 672.72 763.60 M 720.74 771.77 C 724.58 781.03 732.39 787.73 738.64 795.33 C 742.46 799.53 744.97 805.06 750.01 808.03 C 754.64 810.63 759.91 811.78 765.06 812.89 C 761.61 804.14 755.86 796.47 749.11 790.00 C 740.74 782.45 731.28 775.88 720.74 771.77 M 645.16 777.16 C 644.87 777.97 644.59 778.80 644.31 779.64 C 658.97 787.67 674.35 796.31 691.48 796.85 C 686.28 790.33 680.18 784.56 674.07 778.91 C 670.80 776.50 667.60 772.49 663.07 773.38 C 657.01 774.17 651.15 775.98 645.16 777.16 Z" />
</g>
<g id="#76af30ff">
<path fill="#76af30" opacity="1.00" d=" M 720.74 771.77 C 731.28 775.88 740.74 782.45 749.11 790.00 C 755.86 796.47 761.61 804.14 765.06 812.89 C 759.91 811.78 754.64 810.63 750.01 808.03 C 744.97 805.06 742.46 799.53 738.64 795.33 C 732.39 787.73 724.58 781.03 720.74 771.77 Z" />
</g>
<g id="#76af2fff">
<path fill="#76af2f" opacity="1.00" d=" M 645.16 777.16 C 651.15 775.98 657.01 774.17 663.07 773.38 C 667.60 772.49 670.80 776.50 674.07 778.91 C 680.18 784.56 686.28 790.33 691.48 796.85 C 674.35 796.31 658.97 787.67 644.31 779.64 C 644.59 778.80 644.87 777.97 645.16 777.16 Z" />
</g>
<g id="#2c620fff">
<path fill="#2c620f" opacity="1.00" d=" M 850.26 778.15 C 850.80 776.88 851.39 775.63 851.99 774.40 C 853.35 775.89 854.96 777.25 855.87 779.10 C 857.54 784.11 852.04 788.34 853.70 793.33 C 854.93 798.12 854.51 803.09 854.80 807.98 C 854.85 810.24 854.99 812.71 853.65 814.69 C 851.99 817.77 846.68 818.19 844.86 815.05 C 842.53 811.63 842.28 807.33 841.47 803.39 C 840.77 798.84 839.17 794.51 837.88 790.11 C 836.75 786.42 837.68 782.57 837.94 778.83 C 842.85 789.13 845.82 800.20 849.22 811.05 C 850.28 800.12 849.24 789.02 850.26 778.15 Z" />
</g>
<g id="#2b620fff">
<path fill="#2b620f" opacity="1.00" d=" M 821.92 791.20 C 824.50 791.98 827.26 793.10 828.12 795.94 C 833.93 810.57 836.34 826.25 840.48 841.38 C 842.22 849.05 843.30 856.85 844.52 864.61 C 845.21 868.29 844.24 872.86 840.41 874.40 C 836.54 876.72 832.10 874.97 828.16 873.90 C 826.95 875.34 825.78 876.80 824.49 878.17 C 824.23 878.21 823.69 878.30 823.43 878.35 C 823.47 878.10 823.55 877.62 823.59 877.37 C 817.65 868.55 810.51 860.63 803.14 853.00 C 806.11 855.65 810.22 854.36 812.71 851.73 C 812.63 850.63 812.43 849.56 812.19 848.51 C 820.86 855.27 828.04 863.62 835.05 872.02 C 836.27 874.26 838.51 872.69 840.35 872.34 C 837.15 844.72 830.37 817.65 821.92 791.20 Z" />
</g>
<g id="#235700ff">
<path fill="#235700" opacity="1.00" d=" M 856.78 811.67 C 857.63 809.77 858.41 806.86 861.00 806.96 C 864.32 806.28 866.89 808.82 868.86 811.11 C 871.32 820.21 868.44 829.73 869.90 838.95 C 870.54 843.61 869.82 848.39 870.89 853.01 C 871.46 855.81 872.57 858.46 873.56 861.14 C 876.37 859.53 879.03 857.60 882.07 856.44 C 888.46 855.64 894.89 856.71 901.23 857.55 C 903.25 856.63 905.91 856.31 906.93 854.04 C 908.60 850.62 912.51 849.59 915.20 847.20 C 918.41 844.43 922.55 842.06 926.94 842.73 C 932.14 844.13 935.08 849.26 937.25 853.80 C 937.96 858.12 937.44 862.57 937.60 866.95 C 937.92 870.56 935.90 873.69 934.76 876.97 C 933.84 879.39 932.91 882.04 930.60 883.49 C 924.67 887.43 918.73 891.89 911.46 892.86 C 909.16 892.63 906.82 892.05 904.54 892.51 C 903.04 893.48 901.77 894.74 900.41 895.89 C 897.07 897.97 893.24 899.21 890.15 901.72 C 886.59 899.00 883.69 895.46 879.86 893.12 C 877.05 891.38 871.90 894.06 873.49 897.60 C 875.59 900.41 878.34 902.67 880.63 905.34 C 878.01 906.09 875.37 906.80 872.78 907.64 C 872.58 907.51 872.17 907.23 871.97 907.10 C 869.94 903.25 869.01 898.91 866.74 895.21 C 864.66 893.49 861.70 895.50 861.58 897.92 C 861.35 901.57 863.17 904.93 864.84 908.06 L 864.91 908.17 C 858.28 911.86 850.16 909.73 843.67 913.71 C 841.22 915.22 838.56 916.35 835.80 917.09 C 833.28 917.78 830.74 918.34 828.23 919.02 C 822.19 920.50 817.69 926.00 811.10 925.69 C 808.45 925.67 805.80 925.56 803.17 925.64 C 802.70 925.71 802.24 925.82 801.81 925.96 C 798.35 927.09 794.96 928.50 791.38 929.18 C 790.83 929.27 789.72 929.43 789.17 929.52 C 789.52 926.65 791.29 923.30 789.31 920.69 C 787.60 919.28 784.76 919.47 783.47 921.34 C 781.68 923.77 780.70 926.67 779.58 929.44 C 776.46 930.63 773.34 931.99 769.96 932.21 C 766.48 932.44 762.95 932.29 759.54 933.11 C 755.71 927.29 750.91 921.08 743.85 919.29 C 740.86 918.27 738.48 921.81 739.52 924.45 C 741.52 927.14 744.48 928.89 747.21 930.78 C 741.23 930.74 735.25 930.82 729.27 930.65 C 730.57 928.23 732.14 923.40 727.89 923.17 C 723.82 922.18 723.07 926.79 722.23 929.62 C 717.90 929.80 713.31 928.79 709.17 930.35 L 708.76 930.60 L 708.41 930.78 C 707.97 926.97 708.92 922.99 707.66 919.31 C 706.66 916.67 702.17 916.19 701.01 918.92 C 699.37 922.25 698.77 925.97 698.10 929.59 C 692.85 929.30 687.65 930.08 682.43 930.40 C 679.40 930.38 676.38 930.22 673.36 930.30 C 669.95 930.42 666.58 930.94 663.20 931.35 C 661.73 925.61 654.61 923.04 649.57 925.58 C 648.57 927.48 648.92 929.74 648.65 931.83 C 643.59 932.14 638.53 932.65 633.46 932.77 C 630.79 932.88 628.13 933.17 625.49 933.51 C 619.40 934.25 613.24 933.46 607.16 934.43 C 604.31 932.18 603.42 926.51 599.04 927.16 C 595.99 927.56 596.07 931.25 595.83 933.58 C 595.45 933.62 594.68 933.70 594.30 933.75 C 590.57 934.23 586.85 934.78 583.12 935.21 C 580.35 935.29 577.57 935.19 574.81 935.37 C 572.93 935.85 571.10 936.51 569.26 937.10 C 566.55 937.62 563.77 937.55 561.03 937.64 C 565.62 933.87 571.72 933.29 577.00 930.93 C 579.96 929.99 579.27 924.81 576.04 924.74 C 570.83 925.12 566.00 927.45 561.04 928.92 C 556.78 930.17 553.22 933.40 552.11 937.78 C 550.80 937.80 549.51 937.82 548.22 937.85 C 547.13 934.34 544.47 929.56 540.06 930.77 C 536.71 931.93 537.56 935.73 539.15 938.02 C 534.29 937.62 529.47 936.73 524.59 936.64 C 525.20 941.14 524.33 945.64 524.24 950.15 C 523.99 950.00 523.49 949.70 523.23 949.54 C 523.29 949.35 523.39 948.95 523.45 948.75 C 524.66 944.98 524.42 940.96 523.79 937.12 C 522.00 935.76 519.56 936.13 517.45 935.81 C 514.02 934.83 510.47 934.41 506.92 934.17 C 506.50 931.95 505.88 928.90 503.06 928.77 C 500.06 928.59 499.01 931.61 498.82 934.05 C 493.70 933.78 488.55 933.68 483.44 934.27 C 485.81 932.04 488.52 930.13 490.54 927.56 C 491.73 924.44 487.77 921.50 484.94 922.73 C 479.88 924.64 476.63 929.37 474.35 934.05 C 474.20 934.06 473.89 934.09 473.74 934.11 C 470.41 933.40 467.02 932.61 463.61 933.12 C 463.29 929.03 460.71 925.90 457.65 923.43 C 453.80 921.65 450.60 925.22 446.96 925.78 C 443.27 925.60 439.72 924.46 436.07 923.98 C 432.16 923.23 427.80 922.99 424.64 920.29 C 421.08 917.23 423.17 910.25 428.01 910.07 C 439.20 909.59 449.84 914.51 461.05 914.06 C 476.72 913.59 492.45 914.75 508.08 913.35 C 520.26 911.81 532.61 911.50 544.85 912.38 C 552.15 913.47 559.55 912.64 566.87 913.39 C 573.24 914.06 579.58 912.72 585.95 913.01 C 594.66 913.42 603.28 911.65 611.99 911.97 C 619.70 911.35 627.45 911.15 635.15 910.36 C 649.48 907.38 664.20 907.62 678.65 905.56 C 690.78 904.69 702.86 903.11 715.03 902.89 C 718.48 902.77 721.86 901.96 725.22 901.18 C 732.87 899.28 740.86 898.99 748.35 896.37 C 756.01 893.75 763.97 892.14 772.00 891.20 C 778.73 890.53 785.19 888.10 792.00 888.04 C 798.05 887.94 804.04 886.98 809.99 885.97 C 818.55 884.53 826.41 880.63 834.84 878.68 C 839.88 877.29 845.48 876.14 849.23 872.19 C 851.44 869.91 851.24 866.49 850.35 863.68 C 847.38 854.32 844.64 844.89 841.22 835.69 C 840.00 831.79 837.95 827.54 839.47 823.45 C 842.96 819.91 847.75 824.58 851.58 823.62 C 854.68 820.44 855.06 815.61 856.78 811.67 M 920.42 850.62 C 914.99 854.11 911.00 860.43 910.73 866.96 C 910.97 872.25 913.33 878.32 918.55 880.49 C 922.34 882.26 927.38 881.49 930.00 878.08 C 932.84 874.40 934.25 869.63 934.14 865.02 C 933.61 860.39 932.87 855.08 928.89 852.07 C 926.67 849.91 923.24 849.90 920.42 850.62 Z" />
</g>
<g id="#509612ff">
<path fill="#509612" opacity="1.00" d=" M 670.72 818.77 C 675.93 814.41 681.57 808.75 688.95 809.43 C 708.43 810.44 728.12 812.98 746.36 820.23 C 734.87 827.67 721.36 834.52 715.87 847.92 C 727.00 839.21 736.66 827.26 751.05 823.95 C 760.56 822.01 768.48 828.86 775.55 834.13 C 766.84 841.97 757.68 849.34 747.96 855.88 C 734.03 865.26 717.38 869.09 702.64 876.89 C 668.12 873.49 634.72 862.57 603.08 848.63 C 608.65 845.20 614.61 842.34 619.84 838.38 C 627.98 831.14 637.09 825.18 646.43 819.63 C 651.69 820.18 656.85 821.38 661.89 822.98 C 657.62 828.19 653.84 833.84 650.99 839.96 C 657.73 833.05 663.51 825.23 670.72 818.77 M 695.42 838.48 C 686.54 844.04 677.57 849.91 670.70 857.92 C 676.74 860.64 683.28 862.52 689.93 862.83 C 692.65 860.57 694.52 857.49 696.91 854.91 C 705.01 845.79 714.88 837.84 720.37 826.71 C 711.52 829.33 703.42 833.96 695.42 838.48 Z" />
</g>
<g id="#72ad2cff">
<path fill="#72ad2c" opacity="1.00" d=" M 597.78 832.63 C 612.76 824.94 629.30 818.45 646.43 819.63 C 637.09 825.18 627.98 831.14 619.84 838.38 C 612.24 837.69 604.71 835.88 597.78 832.63 Z" />
</g>
<g id="#71aa2bff">
<path fill="#71aa2b" opacity="1.00" d=" M 695.42 838.48 C 703.42 833.96 711.52 829.33 720.37 826.71 C 714.88 837.84 705.01 845.79 696.91 854.91 C 694.52 857.49 692.65 860.57 689.93 862.83 C 683.28 862.52 676.74 860.64 670.70 857.92 C 677.57 849.91 686.54 844.04 695.42 838.48 Z" />
</g>
<g id="#38710dff">
<path fill="#38710d" opacity="1.00" d=" M 775.55 834.13 C 780.02 836.75 785.58 837.34 789.47 840.98 C 788.81 840.57 787.50 839.74 786.85 839.33 C 787.50 849.65 782.68 860.25 774.02 866.03 C 766.76 870.71 758.52 873.75 750.09 875.55 C 734.51 878.78 718.40 878.44 702.64 876.89 C 717.38 869.09 734.03 865.26 747.96 855.88 C 757.68 849.34 766.84 841.97 775.55 834.13 Z" />
</g>
<g id="#557a3cff">
<path fill="#557a3c" opacity="1.00" d=" M 920.42 850.62 C 923.24 849.90 926.67 849.91 928.89 852.07 C 932.87 855.08 933.61 860.39 934.14 865.02 C 934.25 869.63 932.84 874.40 930.00 878.08 C 927.38 881.49 922.34 882.26 918.55 880.49 C 913.33 878.32 910.97 872.25 910.73 866.96 C 911.00 860.43 914.99 854.11 920.42 850.62 M 920.38 859.45 C 915.12 861.80 914.18 869.74 918.77 873.20 C 923.20 876.54 930.76 873.90 931.06 868.03 C 932.51 862.19 925.73 856.93 920.38 859.45 Z" />
</g>
<g id="#5e8d3fff">
<path fill="#5e8d3f" opacity="1.00" d=" M 920.38 859.45 C 925.73 856.93 932.51 862.19 931.06 868.03 C 930.76 873.90 923.20 876.54 918.77 873.20 C 914.18 869.74 915.12 861.80 920.38 859.45 Z" />
</g>
<g id="#4b8c1ff2">
<path fill="#4b8c1f" opacity="0.95" d=" M 904.54 892.51 C 906.82 892.05 909.16 892.63 911.46 892.86 C 916.73 895.68 923.14 897.27 926.75 902.41 C 928.78 905.02 928.12 908.54 928.28 911.62 C 931.93 911.49 935.44 912.54 938.62 914.31 C 944.95 917.31 953.30 918.46 956.87 925.26 C 958.78 930.52 958.45 936.24 958.37 941.75 C 960.06 947.08 961.32 953.02 959.45 958.47 C 958.68 961.14 954.32 961.35 953.58 958.58 C 953.04 954.43 954.15 950.09 952.59 946.09 C 950.10 940.18 953.25 933.36 950.33 927.54 C 946.06 923.20 939.60 922.51 934.41 919.72 C 930.78 917.57 925.87 919.45 922.67 916.39 C 919.82 913.19 923.28 907.86 919.99 904.92 C 914.06 900.74 907.10 898.49 900.41 895.89 C 901.77 894.74 903.04 893.48 904.54 892.51 Z" />
<path fill="#4b8c1f" opacity="0.95" d=" M 864.84 908.06 C 867.21 907.75 869.59 907.45 871.97 907.10 C 872.17 907.23 872.58 907.51 872.78 907.64 C 877.43 909.89 879.43 915.45 884.53 916.93 C 888.19 918.49 890.05 922.46 889.84 926.32 C 893.18 927.79 895.55 930.67 898.63 932.56 C 902.24 934.86 904.21 938.90 904.79 943.05 C 906.54 944.31 908.67 945.31 909.74 947.30 C 912.08 951.21 911.02 955.93 911.89 960.22 C 912.74 964.53 912.03 968.92 910.76 973.07 C 912.53 973.89 914.84 974.59 915.22 976.85 C 915.56 979.85 915.14 982.89 915.54 985.90 C 916.40 987.29 917.54 988.49 918.45 989.88 C 918.27 991.18 917.92 992.45 917.41 993.69 C 913.94 994.04 910.10 992.31 908.86 988.90 C 908.41 986.00 908.65 983.05 908.63 980.15 C 905.98 980.48 903.33 980.80 900.66 980.76 C 900.32 979.49 900.03 978.23 899.80 976.97 C 900.78 973.12 905.32 971.18 905.40 967.01 C 905.78 962.27 904.51 957.61 904.43 952.88 C 904.54 950.52 901.94 949.79 900.46 948.55 C 897.00 946.40 898.65 941.09 895.39 938.80 C 892.12 936.54 889.23 933.65 885.44 932.25 C 881.99 930.86 883.91 926.32 882.42 923.62 C 879.96 922.10 876.86 921.43 875.16 918.91 C 872.30 914.77 867.43 912.55 864.91 908.17 L 864.84 908.06 Z" />
<path fill="#4b8c1f" opacity="0.95" d=" M 828.23 919.02 C 830.74 918.34 833.28 917.78 835.80 917.09 C 836.01 924.03 835.25 931.05 836.19 937.94 C 838.00 944.65 846.96 945.15 849.28 951.47 C 851.54 957.44 855.05 963.22 854.57 969.86 C 852.05 971.09 849.75 972.71 847.58 974.48 C 846.57 967.56 845.36 960.47 841.60 954.43 C 836.66 950.28 830.07 946.78 828.53 939.97 C 827.80 933.01 828.39 926.00 828.23 919.02 Z" />
<path fill="#4b8c1f" opacity="0.95" d=" M 791.38 929.18 C 794.96 928.50 798.35 927.09 801.81 925.96 C 801.16 928.43 799.71 930.48 797.66 931.99 C 796.24 935.66 795.27 939.50 795.12 943.46 C 792.70 942.61 790.34 941.62 788.05 940.48 C 789.17 936.72 790.29 932.95 791.38 929.18 Z" />
<path fill="#4b8c1f" opacity="0.95" d=" M 436.35 932.41 C 439.31 932.49 442.28 932.32 445.22 931.97 C 445.13 932.47 444.94 933.49 444.85 934.00 C 444.12 936.04 443.31 938.07 442.31 940.01 C 440.31 937.48 438.29 934.97 436.35 932.41 Z" />
<path fill="#4b8c1f" opacity="0.95" d=" M 462.27 933.28 L 463.61 933.12 C 467.02 932.61 470.41 933.40 473.74 934.11 C 469.00 937.82 463.32 939.94 457.72 941.97 C 459.89 943.87 462.30 945.54 464.13 947.80 C 466.17 950.49 465.50 954.09 465.79 957.25 C 463.68 956.93 461.56 956.69 459.44 956.49 C 458.93 954.49 459.27 951.94 457.46 950.55 C 454.92 948.30 452.35 945.93 449.19 944.60 C 450.27 941.48 451.83 938.55 453.70 935.85 C 456.60 935.15 459.42 934.17 462.27 933.28 Z" />
<path fill="#4b8c1f" opacity="0.95" d=" M 625.49 933.51 C 628.13 933.17 630.79 932.88 633.46 932.77 C 633.28 938.79 634.39 945.61 639.71 949.30 C 643.11 952.71 648.15 953.24 651.94 955.99 C 655.29 958.76 654.48 963.39 653.38 967.05 C 657.85 969.20 661.72 972.54 664.95 976.25 C 666.44 981.35 664.74 986.92 665.88 992.09 C 668.12 994.05 671.24 994.60 673.52 996.52 C 675.72 998.66 676.29 1002.22 675.20 1005.04 C 674.18 1007.09 671.73 1006.44 669.89 1006.61 C 668.71 1004.73 668.09 1002.18 665.84 1001.30 C 662.61 999.66 658.92 997.75 657.85 993.98 C 657.23 989.32 657.81 984.59 657.51 979.91 C 653.91 976.99 650.09 974.39 646.42 971.59 C 643.08 969.23 644.21 964.64 645.87 961.61 C 640.00 959.65 634.63 956.10 630.64 951.37 C 626.48 946.44 625.68 939.72 625.49 933.51 Z" />
<path fill="#4b8c1f" opacity="0.95" d=" M 517.45 935.81 C 519.56 936.13 522.00 935.76 523.79 937.12 C 524.42 940.96 524.66 944.98 523.45 948.75 C 520.95 947.70 518.48 946.61 516.07 945.40 C 516.86 942.26 517.13 939.01 517.45 935.81 Z" />
<path fill="#4b8c1f" opacity="0.95" d=" M 552.11 937.78 C 554.33 937.77 556.56 937.79 558.79 937.73 C 562.41 942.94 567.09 947.86 573.19 950.06 C 573.30 950.12 573.51 950.25 573.61 950.31 C 572.54 952.27 571.50 954.25 570.48 956.25 C 564.27 954.52 560.38 949.30 555.79 945.21 C 553.72 943.23 553.11 940.34 552.11 937.78 Z" />
<path fill="#4b8c1f" opacity="0.95" d=" M 430.83 949.60 C 432.77 946.40 436.64 945.11 439.36 942.69 C 437.82 947.56 433.21 951.56 433.90 956.99 C 433.94 959.58 436.91 960.20 438.75 961.26 C 438.93 961.34 439.30 961.50 439.48 961.58 C 443.14 963.69 445.98 967.00 448.26 970.51 C 449.27 973.62 449.48 978.32 445.96 979.96 C 441.37 982.03 437.93 986.36 432.65 986.82 C 430.02 987.35 427.38 987.85 424.78 988.52 C 420.49 989.43 416.37 991.17 411.95 991.36 C 409.70 991.43 407.48 991.80 405.33 992.45 C 407.00 995.17 409.27 998.17 408.43 1001.57 C 407.64 1003.93 404.09 1004.27 402.92 1002.02 C 401.37 999.11 399.98 996.03 397.34 993.92 C 397.21 991.60 396.55 988.40 399.08 987.09 C 405.66 984.43 412.99 985.32 419.63 982.94 C 421.44 982.38 423.24 981.80 425.09 981.34 C 427.71 980.71 430.37 980.32 433.03 979.84 C 436.49 978.25 439.32 975.61 442.64 973.77 C 439.33 969.92 434.95 967.00 432.41 962.50 C 429.72 958.80 429.87 953.85 430.83 949.60 Z" />
<path fill="#4b8c1f" opacity="0.95" d=" M 788.54 949.49 C 791.46 950.55 794.29 951.94 796.77 953.86 C 800.10 956.43 803.93 958.23 807.42 960.58 C 807.39 958.20 807.41 955.84 807.45 953.49 L 807.80 953.57 C 807.80 957.16 807.23 960.89 808.54 964.35 L 807.21 964.12 C 807.52 966.06 807.99 968.02 808.11 970.01 C 806.94 975.78 803.18 980.93 803.40 987.01 C 803.13 989.33 803.95 992.20 802.06 994.02 C 799.40 996.53 796.47 998.89 794.91 1002.31 C 791.99 1004.62 786.22 1002.18 787.87 998.17 C 790.75 995.44 793.56 992.64 796.49 989.98 C 796.15 983.89 797.93 978.03 800.37 972.54 C 801.84 969.91 800.79 966.97 800.48 964.21 C 794.81 961.17 787.36 957.18 788.54 949.49 Z" />
<path fill="#4b8c1f" opacity="0.95" d=" M 508.33 973.96 C 508.44 968.35 508.65 962.61 510.53 957.27 C 511.93 960.07 513.71 962.81 516.66 964.19 C 516.58 967.45 516.15 970.78 516.90 974.01 C 517.22 974.22 517.84 974.64 518.15 974.86 C 516.27 976.62 514.36 978.35 512.62 980.26 C 510.49 978.77 507.95 976.92 508.33 973.96 Z" />
<path fill="#4b8c1f" opacity="0.95" d=" M 572.56 961.92 C 573.32 964.12 575.24 965.49 577.10 966.74 L 577.15 966.78 C 573.66 969.05 571.03 972.30 568.17 975.27 C 565.59 977.47 565.40 981.87 567.66 984.38 C 570.50 987.48 574.55 988.95 578.23 990.81 C 580.61 991.88 582.49 995.24 580.37 997.46 C 579.47 999.04 577.42 998.35 575.95 998.61 C 573.30 995.50 569.27 994.26 566.10 991.83 C 561.71 988.77 558.10 983.47 559.39 977.91 C 559.72 974.43 561.98 971.67 564.49 969.44 C 567.04 966.78 569.50 964.02 572.56 961.92 Z" />
<path fill="#4b8c1f" opacity="0.95" d=" M 459.89 973.12 C 461.76 971.95 463.67 970.86 465.55 969.71 C 466.43 970.40 467.32 971.10 468.22 971.81 C 473.59 975.58 475.05 982.39 478.70 987.54 C 479.34 989.73 479.92 991.96 480.43 994.20 C 480.98 996.75 480.99 999.42 480.57 1002.01 C 480.08 1004.74 475.71 1005.68 474.48 1003.02 C 473.98 999.68 474.60 996.29 474.16 992.96 C 472.71 989.23 469.54 986.47 468.25 982.66 C 466.92 978.37 462.59 976.39 459.89 973.12 Z" />
<path fill="#4b8c1f" opacity="0.95" d=" M 856.19 978.21 C 858.69 976.71 861.24 975.29 863.64 973.64 C 863.79 976.87 863.40 980.29 864.65 983.37 C 866.42 985.86 868.71 987.94 870.72 990.25 C 873.04 990.55 875.84 990.38 877.45 992.46 C 879.49 994.71 879.32 999.50 875.85 1000.29 C 872.99 999.77 870.42 998.12 867.55 997.56 C 864.96 997.09 863.73 994.56 862.15 992.78 C 860.24 990.27 857.59 988.17 856.67 985.05 C 856.18 982.80 856.24 980.49 856.19 978.21 Z" />
<path fill="#4b8c1f" opacity="0.95" d=" M 519.60 984.39 C 521.59 982.66 523.60 980.96 525.62 979.27 C 527.87 981.55 530.14 984.15 529.43 987.65 C 526.18 986.47 522.86 985.51 519.60 984.39 Z" />
<path fill="#4b8c1f" opacity="0.95" d=" M 511.57 989.28 C 514.85 990.92 518.16 992.53 521.65 993.70 C 517.42 994.54 514.11 997.17 511.50 1000.49 C 507.52 1005.35 501.65 1008.01 497.35 1012.52 C 496.31 1013.83 494.56 1013.91 493.03 1013.71 C 491.01 1013.74 490.52 1011.37 489.43 1010.14 C 489.88 1009.04 490.33 1007.95 490.79 1006.88 C 493.93 1004.59 497.06 1002.31 500.23 1000.07 C 504.56 997.08 507.63 992.70 511.57 989.28 Z" />
</g>
<g id="#42771eff">
<path fill="#42771e" opacity="1.00" d=" M 873.49 897.60 C 871.90 894.06 877.05 891.38 879.86 893.12 C 883.69 895.46 886.59 899.00 890.15 901.72 L 889.89 901.86 C 887.53 903.18 885.15 904.46 882.77 905.73 C 882.23 905.63 881.17 905.44 880.63 905.34 C 878.34 902.67 875.59 900.41 873.49 897.60 Z" />
<path fill="#42771e" opacity="1.00" d=" M 739.52 924.45 C 738.48 921.81 740.86 918.27 743.85 919.29 C 750.91 921.08 755.71 927.29 759.54 933.11 C 755.87 934.35 752.06 933.43 748.75 931.67 C 748.36 931.45 747.59 931.00 747.21 930.78 C 744.48 928.89 741.52 927.14 739.52 924.45 Z" />
<path fill="#42771e" opacity="1.00" d=" M 783.47 921.34 C 784.76 919.47 787.60 919.28 789.31 920.69 C 791.29 923.30 789.52 926.65 789.17 929.52 L 787.80 929.66 C 785.06 929.79 782.31 929.62 779.58 929.44 C 780.70 926.67 781.68 923.77 783.47 921.34 Z" />
<path fill="#42771e" opacity="1.00" d=" M 484.94 922.73 C 487.77 921.50 491.73 924.44 490.54 927.56 C 488.52 930.13 485.81 932.04 483.44 934.27 L 482.94 934.25 C 480.08 934.18 477.21 934.12 474.35 934.05 C 476.63 929.37 479.88 924.64 484.94 922.73 Z" />
</g>
<g id="#4e9220ff">
<path fill="#4e9220" opacity="1.00" d=" M 861.58 897.92 C 861.70 895.50 864.66 893.49 866.74 895.21 C 869.01 898.91 869.94 903.25 871.97 907.10 C 869.59 907.45 867.21 907.75 864.84 908.06 C 863.17 904.93 861.35 901.57 861.58 897.92 Z" />
</g>
<g id="#3f711df2">
<path fill="#3f711d" opacity="0.95" d=" M 882.77 905.73 C 885.15 904.46 887.53 903.18 889.89 901.86 C 892.84 904.63 895.33 907.88 898.46 910.46 C 902.06 912.48 906.29 913.14 909.86 915.29 C 914.58 917.61 918.38 921.30 922.67 924.28 C 925.53 926.38 929.84 924.84 932.25 927.82 C 935.37 930.38 935.34 935.60 932.07 938.04 C 928.93 940.25 925.42 941.91 922.39 944.29 C 924.95 947.54 929.02 949.17 931.46 952.55 C 932.96 954.54 934.34 956.64 935.57 958.83 C 937.60 962.23 936.92 967.26 933.41 969.45 C 930.51 971.25 927.32 972.71 924.01 973.57 C 919.95 974.06 918.94 967.79 922.09 966.03 C 924.18 964.75 926.56 964.04 928.82 963.11 C 926.87 959.82 925.03 956.22 921.63 954.21 C 918.40 952.01 914.00 949.60 914.51 945.01 C 913.99 939.33 919.84 936.54 923.72 933.73 C 915.26 930.24 909.48 922.20 900.43 919.84 C 892.51 918.21 888.26 910.88 882.77 905.73 Z" />
<path fill="#3f711d" opacity="0.95" d=" M 851.90 911.47 C 854.08 910.92 856.36 911.18 858.59 911.24 C 859.01 912.80 859.34 914.37 859.68 915.98 C 858.11 917.23 856.14 918.20 855.10 919.98 C 854.40 921.93 854.77 924.06 854.68 926.10 C 860.21 929.52 866.69 929.87 872.89 931.09 C 876.82 932.90 882.14 931.18 885.15 934.86 C 887.22 936.86 885.02 940.79 887.71 942.26 C 893.08 945.37 893.70 952.36 893.66 957.94 C 893.30 962.39 895.50 966.81 894.35 971.21 C 891.31 974.48 886.18 975.76 882.20 973.41 C 882.18 971.52 882.21 969.64 882.28 967.77 C 883.60 967.15 884.92 966.53 886.27 965.96 C 885.00 960.63 886.97 954.65 884.25 949.72 C 881.74 947.80 878.35 947.16 876.45 944.43 C 876.54 942.93 876.63 941.45 876.73 939.98 C 867.44 937.76 857.11 937.81 849.21 931.73 C 846.26 929.03 846.61 924.56 846.82 920.93 C 847.40 917.40 848.57 913.34 851.90 911.47 Z" />
<path fill="#3f711d" opacity="0.95" d=" M 803.17 925.64 C 805.80 925.56 808.45 925.67 811.10 925.69 C 812.22 927.86 813.19 930.25 815.08 931.92 C 817.86 934.48 821.51 936.39 823.10 940.02 C 824.17 942.50 822.78 945.12 822.51 947.64 C 826.02 948.58 830.88 948.40 832.25 952.59 C 833.16 957.67 827.60 960.58 824.27 963.31 C 828.69 965.39 833.35 966.97 837.60 969.41 C 841.63 971.70 844.43 975.70 845.10 980.31 C 846.05 978.42 847.14 976.57 847.58 974.48 C 849.75 972.71 852.05 971.09 854.57 969.86 C 858.03 968.47 860.78 965.96 863.40 963.38 C 864.94 961.64 867.43 962.62 869.43 962.50 C 869.47 964.39 870.08 966.43 869.32 968.26 C 867.88 970.47 865.78 972.14 863.64 973.64 C 861.24 975.29 858.69 976.71 856.19 978.21 C 853.02 980.09 852.54 984.16 851.12 987.25 C 846.54 989.58 841.27 987.88 836.73 986.32 C 836.45 985.26 836.20 984.26 835.94 983.23 C 836.21 981.81 836.46 980.36 836.50 978.94 C 834.61 976.25 831.46 975.05 828.51 973.94 C 828.81 979.81 827.27 987.61 833.64 990.90 C 833.60 992.26 833.57 993.64 833.53 995.03 C 832.92 995.45 831.69 996.28 831.07 996.70 C 825.34 997.03 822.30 991.37 821.30 986.56 C 819.80 981.49 822.13 975.55 818.88 971.03 C 815.96 968.07 811.56 967.21 808.54 964.35 C 807.23 960.89 807.80 957.16 807.80 953.57 L 807.45 953.49 C 803.53 952.61 799.52 952.27 795.53 952.13 L 796.77 953.86 C 794.29 951.94 791.46 950.55 788.54 949.49 C 784.65 948.03 781.09 944.98 779.81 940.97 C 779.36 937.14 779.71 933.28 779.58 929.44 C 782.31 929.62 785.06 929.79 787.80 929.66 C 787.52 933.26 787.23 936.93 788.05 940.48 C 790.34 941.62 792.70 942.61 795.12 943.46 C 800.69 944.75 806.42 945.43 812.12 945.78 C 814.01 946.01 814.78 943.75 814.84 942.25 C 812.03 939.30 808.34 937.18 806.14 933.68 C 804.68 931.19 804.01 928.35 803.17 925.64 M 815.67 954.47 C 815.46 956.05 815.26 957.64 815.10 959.25 C 817.42 958.19 819.65 956.95 821.83 955.63 C 819.78 955.19 817.73 954.79 815.67 954.47 Z" />
<path fill="#3f711d" opacity="0.95" d=" M 414.87 927.54 C 417.59 927.33 420.25 928.05 422.77 929.05 C 421.10 932.36 419.61 935.76 418.21 939.19 C 416.79 942.82 413.48 945.16 411.54 948.46 C 409.30 952.14 407.93 956.23 406.34 960.21 C 413.13 962.37 419.29 966.05 425.53 969.41 C 429.54 971.53 432.66 975.15 433.03 979.84 C 430.37 980.32 427.71 980.71 425.09 981.34 C 424.92 977.97 421.75 976.44 419.21 974.96 C 415.59 973.13 412.00 970.54 407.71 971.28 C 404.17 967.61 397.13 965.32 398.52 959.03 C 400.84 951.40 403.95 943.57 409.84 937.95 C 411.87 934.67 412.68 930.75 414.87 927.54 Z" />
<path fill="#3f711d" opacity="0.95" d=" M 595.83 933.58 C 596.07 931.25 595.99 927.56 599.04 927.16 C 603.42 926.51 604.31 932.18 607.16 934.43 C 612.47 938.14 618.67 940.30 623.99 943.96 C 627.77 946.73 628.23 951.82 626.89 956.01 C 631.09 959.40 636.94 962.79 636.79 968.98 C 636.56 974.04 641.94 976.06 645.90 977.39 C 649.55 978.55 650.91 982.58 650.82 986.09 C 652.17 986.28 653.55 986.51 654.92 986.73 C 655.35 987.30 656.20 988.43 656.63 989.00 C 656.17 990.45 655.69 991.91 655.18 993.37 C 650.22 993.41 643.95 995.53 640.13 991.31 C 640.47 988.99 641.38 986.84 642.60 984.86 C 637.43 983.02 632.52 979.86 629.62 975.12 C 628.96 972.06 629.76 968.19 626.95 966.03 C 624.77 963.62 621.59 962.81 618.55 962.15 C 615.80 961.62 612.66 958.80 613.97 955.79 C 615.10 953.37 617.65 952.08 619.46 950.24 C 615.46 948.08 611.47 945.90 607.36 943.97 C 607.36 949.49 609.32 955.82 605.88 960.72 C 603.77 965.71 601.91 971.07 602.53 976.57 C 604.86 978.83 608.14 980.15 609.74 983.12 C 612.38 987.91 611.41 994.03 608.57 998.50 C 607.42 1000.48 604.81 999.34 602.97 999.48 C 602.43 998.23 601.88 996.99 601.34 995.77 C 597.42 994.10 593.19 993.50 588.96 993.76 C 586.84 994.03 585.00 993.14 583.43 991.82 C 583.42 990.48 583.42 989.16 583.42 987.85 C 579.38 986.79 574.51 987.67 571.32 984.50 C 570.89 979.78 575.62 977.79 579.11 976.04 C 579.45 975.56 580.11 974.61 580.45 974.13 C 579.26 971.75 579.41 968.42 577.15 966.78 L 577.10 966.74 C 579.92 965.12 581.40 962.31 581.12 959.05 C 586.17 961.21 586.47 967.07 587.95 971.64 C 589.00 974.64 587.41 977.56 586.29 980.28 C 588.29 981.09 590.28 981.93 592.26 982.82 C 592.47 983.87 592.69 984.94 592.92 986.02 C 596.19 986.24 599.45 986.64 602.68 987.27 C 602.52 987.00 602.21 986.45 602.05 986.18 C 599.35 984.16 595.98 982.42 594.74 979.09 C 593.65 971.15 595.60 963.05 599.05 955.91 C 600.86 952.74 599.94 949.05 599.39 945.68 C 593.42 943.10 587.90 939.63 583.12 935.21 C 586.85 934.78 590.57 934.23 594.30 933.75 C 593.95 935.08 596.93 937.02 596.85 934.98 C 596.59 934.63 596.08 933.93 595.83 933.58 Z" />
<path fill="#3f711d" opacity="0.95" d=" M 498.82 934.05 C 499.01 931.61 500.06 928.59 503.06 928.77 C 505.88 928.90 506.50 931.95 506.92 934.17 C 506.69 937.43 505.67 940.55 504.49 943.59 C 508.18 944.85 512.04 945.45 515.92 945.71 C 513.92 949.00 513.21 952.86 511.27 956.17 C 511.37 955.35 511.57 953.73 511.67 952.91 C 506.59 952.90 500.76 951.82 497.54 947.51 C 494.69 943.14 498.46 938.54 498.82 934.05 Z" />
<path fill="#3f711d" opacity="0.95" d=" M 673.36 930.30 C 676.38 930.22 679.40 930.38 682.43 930.40 C 680.15 935.05 675.53 938.59 675.04 944.01 C 680.40 944.06 685.97 945.46 690.14 948.97 C 691.96 950.43 691.84 952.98 691.77 955.10 C 691.55 960.09 687.76 963.76 685.68 968.03 C 685.98 971.99 688.13 975.53 689.83 979.04 C 688.63 980.48 686.45 981.75 686.92 983.96 C 687.15 986.39 690.00 986.90 691.67 988.17 C 689.78 988.21 689.55 990.11 688.92 991.47 C 687.41 991.53 685.87 991.74 684.38 991.45 C 681.97 989.37 682.57 985.71 681.40 982.97 C 677.05 982.22 672.39 980.77 670.00 976.75 C 666.34 972.44 667.89 966.56 667.31 961.45 C 663.51 957.35 657.30 956.65 653.19 952.87 C 650.78 950.64 646.84 948.83 647.24 944.96 C 646.79 939.78 651.96 936.85 653.90 932.54 C 657.00 932.20 660.10 931.73 663.20 931.35 C 661.80 936.30 658.54 940.33 655.35 944.25 C 660.73 949.74 668.87 951.14 674.30 956.52 C 677.18 962.13 672.89 969.82 678.39 974.40 C 678.05 971.64 677.20 968.81 677.87 966.05 C 679.20 961.82 682.94 958.75 683.85 954.35 C 679.92 951.56 674.95 952.14 670.48 951.23 C 666.91 949.64 667.13 945.18 667.33 941.92 C 667.42 937.31 670.56 933.65 673.36 930.30 Z" />
<path fill="#3f711d" opacity="0.95" d=" M 539.15 938.02 C 537.56 935.73 536.71 931.93 540.06 930.77 C 544.47 929.56 547.13 934.34 548.22 937.85 C 548.46 940.62 547.90 943.51 548.68 946.24 C 550.49 949.07 554.44 951.06 553.78 954.96 C 553.99 958.64 549.63 960.07 548.48 963.02 C 550.06 967.03 554.48 969.28 556.49 973.07 C 558.47 978.67 553.04 982.32 549.13 985.06 C 545.17 987.10 541.33 989.75 536.96 990.73 C 533.17 991.56 530.76 986.14 533.88 983.88 C 538.28 981.14 543.67 980.04 547.53 976.41 C 548.02 975.27 546.63 974.61 546.13 973.81 C 544.65 972.16 543.16 970.53 541.61 968.97 C 540.73 966.05 539.89 962.95 540.68 959.93 C 541.66 957.87 543.33 956.28 544.85 954.64 C 543.34 952.65 541.57 950.77 540.73 948.39 C 539.87 944.98 541.13 941.13 539.15 938.02 Z" />
<path fill="#3f711d" opacity="0.95" d=" M 708.41 930.78 L 708.76 930.60 C 712.01 933.30 715.83 935.13 719.65 936.89 C 718.25 939.15 716.56 941.22 714.85 943.27 C 712.96 942.33 711.09 941.40 709.23 940.44 C 708.68 937.25 708.28 934.02 708.41 930.78 Z" />
<path fill="#3f711d" opacity="0.95" d=" M 748.75 931.67 C 752.06 933.43 755.87 934.35 759.54 933.11 C 760.33 937.02 760.95 941.04 760.38 945.03 C 759.78 946.98 758.80 948.80 758.20 950.76 C 762.25 952.31 766.86 952.10 770.61 954.47 C 773.48 956.27 777.29 957.10 779.13 960.18 C 780.99 964.58 777.07 968.58 777.35 973.00 C 777.40 976.03 776.92 979.40 778.77 982.06 C 780.68 985.71 786.07 987.19 785.54 992.06 C 786.12 995.52 781.06 998.02 778.78 995.19 C 776.09 991.83 773.39 988.42 771.21 984.71 C 768.83 980.92 769.55 976.28 769.44 972.04 C 769.31 969.20 770.17 966.50 771.16 963.89 C 765.64 959.51 758.33 959.79 752.16 956.92 C 750.06 955.97 748.00 953.69 748.85 951.23 C 749.57 947.26 753.46 944.29 752.64 939.99 C 752.80 936.70 750.42 934.22 748.75 931.67 Z" />
<path fill="#3f711d" opacity="0.95" d=" M 474.35 934.05 C 477.21 934.12 480.08 934.18 482.94 934.25 C 481.59 937.80 480.50 941.43 479.61 945.12 C 479.88 945.65 480.42 946.72 480.69 947.26 C 482.64 948.30 484.99 948.97 486.34 950.87 C 486.62 952.30 486.73 953.78 486.89 955.26 C 490.98 957.42 495.66 960.79 495.44 965.99 C 495.93 969.19 493.87 971.78 492.45 974.43 C 495.67 976.59 499.10 979.68 498.71 983.97 C 499.11 987.35 495.90 989.19 493.43 990.66 C 493.47 991.35 493.55 992.73 493.60 993.42 C 492.18 994.81 490.46 997.54 488.17 996.03 C 485.85 994.52 483.19 993.89 480.43 994.20 C 479.92 991.96 479.34 989.73 478.70 987.54 C 482.33 985.49 486.25 984.01 490.28 982.96 C 487.56 981.69 484.64 980.69 482.27 978.79 C 480.23 977.27 479.71 973.64 482.06 972.17 C 483.97 970.20 487.49 969.05 487.57 965.89 C 485.67 962.00 479.73 964.27 477.68 960.52 C 477.27 958.67 477.43 956.77 477.39 954.91 C 475.00 952.63 472.19 950.23 471.86 946.72 C 471.62 942.36 473.33 938.21 474.35 934.05 Z" />
<path fill="#3f711d" opacity="0.95" d=" M 569.26 937.10 C 571.10 936.51 572.93 935.85 574.81 935.37 C 576.06 937.73 577.27 940.12 578.59 942.47 C 581.88 947.22 579.82 953.28 581.06 958.60 C 580.28 954.59 577.01 952.09 573.61 950.31 C 573.51 950.25 573.30 950.12 573.19 950.06 C 570.52 946.24 568.81 941.82 569.26 937.10 Z" />
<path fill="#3f711d" opacity="0.95" d=" M 720.61 946.98 C 723.12 944.36 724.94 941.19 726.25 937.83 C 726.28 938.50 726.34 939.84 726.37 940.50 C 730.25 942.21 735.30 944.93 734.68 949.97 C 735.32 954.03 731.92 956.89 728.78 958.70 C 725.87 960.29 723.52 962.63 721.39 965.13 C 723.75 966.90 726.00 968.83 728.24 970.77 C 725.69 970.56 722.93 970.71 720.69 969.28 C 717.57 967.29 715.59 964.07 713.15 961.40 C 717.81 957.49 722.07 953.08 727.33 949.93 C 725.10 948.89 722.87 947.91 720.61 946.98 Z" />
<path fill="#3f711d" opacity="0.95" d=" M 438.29 952.34 C 440.57 949.70 443.82 948.26 446.87 946.72 C 445.51 949.03 444.19 951.39 442.84 953.71 C 448.27 955.19 453.80 956.32 459.44 956.49 C 461.56 956.69 463.68 956.93 465.79 957.25 C 468.11 957.73 470.72 959.28 470.61 961.98 C 471.09 965.47 468.29 968.11 465.55 969.71 C 463.67 970.86 461.76 971.95 459.89 973.12 C 459.58 973.31 458.96 973.69 458.65 973.88 C 458.76 978.26 459.17 983.29 455.64 986.58 C 452.21 991.06 445.04 990.97 442.78 996.45 C 440.24 996.96 437.88 996.50 436.31 994.34 C 436.61 992.23 436.46 989.81 438.11 988.21 C 441.71 984.95 447.23 984.43 450.35 980.55 C 451.18 977.37 450.16 974.04 450.64 970.82 C 451.76 967.99 456.05 967.36 455.85 963.89 C 450.23 964.29 445.04 961.69 439.48 961.58 C 439.30 961.50 438.93 961.34 438.75 961.26 C 438.32 958.39 435.74 954.77 438.29 952.34 Z" />
<path fill="#3f711d" opacity="0.95" d=" M 523.23 949.54 C 523.49 949.70 523.99 950.00 524.24 950.15 L 525.57 950.91 C 526.01 953.79 525.07 956.44 522.57 958.07 C 525.47 960.25 529.03 962.89 528.74 966.98 C 529.08 969.38 528.06 971.60 526.63 973.46 C 526.41 975.40 526.09 977.34 525.57 979.24 C 523.29 977.46 520.76 976.07 518.15 974.86 C 517.84 974.64 517.22 974.22 516.90 974.01 C 517.43 971.15 519.09 968.78 520.97 966.65 C 519.65 965.88 518.33 965.14 517.02 964.40 C 518.26 959.12 520.71 954.29 523.23 949.54 Z" />
<path fill="#3f711d" opacity="0.95" d=" M 725.44 978.03 C 728.05 978.14 730.67 978.13 733.29 978.21 C 732.62 983.31 737.39 987.02 736.46 992.06 C 735.24 992.58 734.03 993.11 732.83 993.67 C 726.72 991.20 725.31 983.91 725.44 978.03 Z" />
<path fill="#3f711d" opacity="0.95" d=" M 424.78 988.52 C 427.38 987.85 430.02 987.35 432.65 986.82 C 432.12 990.18 431.97 993.62 431.16 996.93 C 429.16 999.39 425.74 1000.29 424.08 1003.09 C 423.03 1004.49 422.24 1006.18 420.74 1007.20 C 418.14 1008.55 414.88 1005.80 415.53 1003.02 C 416.28 998.94 419.00 995.46 422.55 993.40 C 424.41 992.48 424.07 990.15 424.78 988.52 Z" />
</g>
<g id="#4d8f20fa">
<path fill="#4d8f20" opacity="0.98" d=" M 701.01 918.92 C 702.17 916.19 706.66 916.67 707.66 919.31 C 708.92 922.99 707.97 926.97 708.41 930.78 C 708.28 934.02 708.68 937.25 709.23 940.44 C 709.63 943.21 709.67 946.02 709.73 948.83 C 711.44 946.98 713.20 945.17 714.85 943.27 C 716.56 941.22 718.25 939.15 719.65 936.89 C 720.67 934.52 721.47 932.07 722.23 929.62 C 723.07 926.79 723.82 922.18 727.89 923.17 C 732.14 923.40 730.57 928.23 729.27 930.65 C 728.21 933.02 727.24 935.43 726.25 937.83 C 724.94 941.19 723.12 944.36 720.61 946.98 C 716.52 951.06 712.19 955.36 711.12 961.30 C 711.63 961.33 712.64 961.37 713.15 961.40 C 715.59 964.07 717.57 967.29 720.69 969.28 C 722.93 970.71 725.69 970.56 728.24 970.77 C 733.16 971.26 738.07 971.99 743.03 971.44 C 744.67 971.06 745.69 972.68 746.26 973.95 C 746.93 978.13 746.17 982.37 746.42 986.58 C 749.78 988.62 754.24 988.18 757.29 990.87 C 757.88 992.20 757.61 993.75 757.74 995.19 C 757.07 995.48 755.72 996.06 755.05 996.35 C 750.45 994.50 744.82 994.56 741.30 990.66 C 737.88 987.52 740.00 982.57 739.87 978.60 C 737.67 978.45 735.48 978.28 733.29 978.21 C 730.67 978.13 728.05 978.14 725.44 978.03 C 720.08 977.44 715.21 974.44 711.62 970.51 C 709.96 968.90 708.43 967.01 706.30 966.03 C 702.69 971.01 700.18 976.69 696.80 981.84 C 699.00 983.03 701.43 984.35 702.35 986.87 C 702.90 989.89 702.90 993.03 702.46 996.08 C 701.13 998.72 698.61 1000.57 696.49 1002.57 C 694.93 1004.22 692.54 1003.40 690.57 1003.43 C 690.46 1001.87 690.37 1000.31 690.33 998.77 C 692.79 996.67 695.35 993.77 694.67 990.27 C 693.76 989.43 692.70 988.79 691.67 988.17 C 690.00 986.90 687.15 986.39 686.92 983.96 C 686.45 981.75 688.63 980.48 689.83 979.04 C 694.86 974.33 696.67 967.35 701.08 962.17 C 702.16 960.60 704.07 959.21 703.65 957.08 C 703.08 951.04 703.65 944.88 702.18 938.95 C 701.41 935.58 699.01 932.90 698.10 929.59 C 698.77 925.97 699.37 922.25 701.01 918.92 Z" />
</g>
<g id="#43781eff">
<path fill="#43781e" opacity="1.00" d=" M 447.11 932.01 C 447.83 926.88 452.94 924.03 457.65 923.43 C 460.71 925.90 463.29 929.03 463.61 933.12 L 462.27 933.28 C 459.32 933.92 455.09 932.20 453.70 935.85 C 451.83 938.55 450.27 941.48 449.19 944.60 C 448.40 945.27 447.64 946.01 446.87 946.72 C 443.82 948.26 440.57 949.70 438.29 952.34 C 435.74 954.77 438.32 958.39 438.75 961.26 C 436.91 960.20 433.94 959.58 433.90 956.99 C 433.21 951.56 437.82 947.56 439.36 942.69 C 440.38 941.83 441.34 940.90 442.31 940.01 C 443.31 938.07 444.12 936.04 444.85 934.00 C 446.29 934.13 447.04 933.47 447.11 932.01 Z" />
</g>
<g id="#4f9220ff">
<path fill="#4f9220" opacity="1.00" d=" M 561.04 928.92 C 566.00 927.45 570.83 925.12 576.04 924.74 C 579.27 924.81 579.96 929.99 577.00 930.93 C 571.72 933.29 565.62 933.87 561.03 937.64 C 560.47 937.66 559.35 937.71 558.79 937.73 C 556.56 937.79 554.33 937.77 552.11 937.78 C 553.22 933.40 556.78 930.17 561.04 928.92 Z" />
</g>
<g id="#43771eff">
<path fill="#43771e" opacity="1.00" d=" M 649.57 925.58 C 654.61 923.04 661.73 925.61 663.20 931.35 C 660.10 931.73 657.00 932.20 653.90 932.54 C 652.11 932.67 650.38 932.13 648.65 931.83 C 648.92 929.74 648.57 927.48 649.57 925.58 Z" />
</g>
<g id="#26490e9a">
<path fill="#26490e" opacity="0.60" d=" M 445.22 931.97 C 445.70 931.98 446.64 932.00 447.11 932.01 C 447.04 933.47 446.29 934.13 444.85 934.00 C 444.94 933.49 445.13 932.47 445.22 931.97 Z" />
</g>
<g id="#05090215">
<path fill="#050902" opacity="0.08" d=" M 453.70 935.85 C 455.09 932.20 459.32 933.92 462.27 933.28 C 459.42 934.17 456.60 935.15 453.70 935.85 Z" />
<path fill="#050902" opacity="0.08" d=" M 815.67 954.47 C 817.73 954.79 819.78 955.19 821.83 955.63 C 819.65 956.95 817.42 958.19 815.10 959.25 C 815.26 957.64 815.46 956.05 815.67 954.47 Z" />
</g>
<g id="#24430f91">
<path fill="#24430f" opacity="0.57" d=" M 594.30 933.75 C 594.68 933.70 595.45 933.62 595.83 933.58 C 596.08 933.93 596.59 934.63 596.85 934.98 C 596.93 937.02 593.95 935.08 594.30 933.75 Z" />
</g>
<g id="#0408020e">
<path fill="#040802" opacity="0.05" d=" M 709.23 940.44 C 711.09 941.40 712.96 942.33 714.85 943.27 C 713.20 945.17 711.44 946.98 709.73 948.83 C 709.67 946.02 709.63 943.21 709.23 940.44 Z" />
</g>
<g id="#43791efe">
<path fill="#43791e" opacity="1.00" d=" M 515.92 945.71 L 516.07 945.40 C 518.48 946.61 520.95 947.70 523.45 948.75 C 523.39 948.95 523.29 949.35 523.23 949.54 C 520.71 954.29 518.26 959.12 517.02 964.40 L 516.66 964.19 C 513.71 962.81 511.93 960.07 510.53 957.27 L 511.27 956.17 C 513.21 952.86 513.92 949.00 515.92 945.71 Z" />
<path fill="#43791e" opacity="1.00" d=" M 518.15 974.86 C 520.76 976.07 523.29 977.46 525.57 979.24 L 525.62 979.27 C 523.60 980.96 521.59 982.66 519.60 984.39 C 522.86 985.51 526.18 986.47 529.43 987.65 C 530.25 988.25 530.96 988.99 531.73 989.70 C 531.37 991.23 531.78 993.19 530.37 994.30 C 527.90 996.59 524.43 994.12 521.65 993.70 C 518.16 992.53 514.85 990.92 511.57 989.28 C 511.50 986.29 510.58 982.79 512.62 980.26 C 514.36 978.35 516.27 976.62 518.15 974.86 Z" />
</g>
<g id="#4e9220fe">
<path fill="#4e9220" opacity="1.00" d=" M 570.48 956.25 C 571.50 954.25 572.54 952.27 573.61 950.31 C 577.01 952.09 580.28 954.59 581.06 958.60 L 581.12 959.05 C 581.40 962.31 579.92 965.12 577.10 966.74 C 575.24 965.49 573.32 964.12 572.56 961.92 C 572.30 959.86 571.99 957.78 570.48 956.25 Z" />
</g>
<g id="#050a0213">
<path fill="#050a02" opacity="0.07" d=" M 516.66 964.19 L 517.02 964.40 C 518.33 965.14 519.65 965.88 520.97 966.65 C 519.09 968.78 517.43 971.15 516.90 974.01 C 516.15 970.78 516.58 967.45 516.66 964.19 Z" />
</g>
</svg>
