<svg xmlns="http://www.w3.org/2000/svg" viewBox="0 0 504.125 504.125" style="enable-background:new 0 0 504.125 504.125" xml:space="preserve"><defs><linearGradient id="i"><stop offset="0" style="stop-color:#0f0;stop-opacity:1"/><stop offset="1" style="stop-color:#0f0;stop-opacity:0"/></linearGradient><linearGradient id="h"><stop offset="0" style="stop-color:#001b00;stop-opacity:1"/><stop offset="1" style="stop-color:#001b00;stop-opacity:0"/></linearGradient><linearGradient id="g"><stop offset="0" style="stop-color:green;stop-opacity:1"/><stop offset="1" style="stop-color:green;stop-opacity:0"/></linearGradient><linearGradient id="d"><stop offset="0" style="stop-color:#fff;stop-opacity:1"/><stop offset="1" style="stop-color:#fff;stop-opacity:0"/></linearGradient><linearGradient id="f"><stop offset="0" style="stop-color:maroon;stop-opacity:1"/><stop offset="1" style="stop-color:maroon;stop-opacity:0"/></linearGradient><linearGradient id="c"><stop offset="0" style="stop-color:red;stop-opacity:1"/><stop offset="1" style="stop-color:red;stop-opacity:0"/></linearGradient><linearGradient id="a"><stop offset="0" style="stop-color:#000;stop-opacity:1"/><stop offset="1" style="stop-color:#000;stop-opacity:0"/></linearGradient><linearGradient id="e"><stop offset="0" style="stop-color:#0ff;stop-opacity:1"/><stop offset="1" style="stop-color:#02cabc;stop-opacity:0"/></linearGradient><linearGradient id="b"><stop offset="0" style="stop-color:navy;stop-opacity:1"/><stop offset="1" style="stop-color:navy;stop-opacity:0"/></linearGradient></defs><g style="fill:#fff"><path d="M164.353 0S119.817 108.954 310.69 182.138c103.716 39.755 183.376 141.651 88.262 299.055-7.877-70.357-41.653-225.485-186.888-260.884 0 0 135.176 50.546 147.117 279.347-69.459 9.752-232.36 16.305-280.726-125.062C14.59 187.817 164.353 0 164.353 0z" style="fill:#fff;fill-opacity:1" transform="translate(-58)"/><path d="M359.118 498.704C211.662 439.855 104.37 301.994 89.563 137.421 119.707 56.107 164.353 0 164.353 0S119.817 108.954 310.69 182.138c103.716 39.755 183.376 141.651 88.262 299.055-7.877-70.357-41.653-225.485-186.888-260.884.008.001 134.782 50.421 147.054 278.395z" style="fill:#fff;fill-opacity:1" transform="translate(-58)"/></g><g style="fill:#fff"><path d="M164.353 0S119.817 108.954 310.69 182.138c103.716 39.755 183.376 141.651 88.262 299.055-7.877-70.357-41.653-225.485-186.888-260.884 0 0 135.176 50.546 147.117 279.347-69.459 9.752-232.36 16.305-280.726-125.062C14.59 187.817 164.353 0 164.353 0z" style="fill:#fff;fill-opacity:1" transform="matrix(0 -.5204 .5204 0 242.052 231.065)"/><path d="M359.118 498.704C211.662 439.855 104.37 301.994 89.563 137.421 119.707 56.107 164.353 0 164.353 0S119.817 108.954 310.69 182.138c103.716 39.755 183.376 141.651 88.262 299.055-7.877-70.357-41.653-225.485-186.888-260.884.008.001 134.782 50.421 147.054 278.395z" style="fill:#fff;fill-opacity:1" transform="matrix(0 -.5204 .5204 0 242.052 231.065)"/></g></svg>