<svg width="500" height="500" xmlns="http://www.w3.org/2000/svg">
  <rect width="100%" height="100%" fill="#292929" />
  
  <!-- خطوط افقی -->
  <g stroke="#353535" stroke-width="1">
    <line x1="0" y1="50" x2="500" y2="50" />
    <line x1="0" y1="100" x2="500" y2="100" />
    <line x1="0" y1="150" x2="500" y2="150" />
    <line x1="0" y1="200" x2="500" y2="200" />
    <line x1="0" y1="250" x2="500" y2="250" />
    <line x1="0" y1="300" x2="500" y2="300" />
    <line x1="0" y1="350" x2="500" y2="350" />
    <line x1="0" y1="400" x2="500" y2="400" />
    <line x1="0" y1="450" x2="500" y2="450" />
    
    <!-- خط مشکی در هر 500 پیکسل -->
    <line x1="0" y1="500" x2="500" y2="500" stroke="black" />
  </g>
  
  <!-- خطوط عمودی -->
  <g stroke="#353535" stroke-width="1">
    <line x1="50" y1="0" x2="50" y2="500" />
    <line x1="100" y1="0" x2="100" y2="500" />
    <line x1="150" y1="0" x2="150" y2="500" />
    <line x1="200" y1="0" x2="200" y2="500" />
    <line x1="250" y1="0" x2="250" y2="500" />
    <line x1="300" y1="0" x2="300" y2="500" />
    <line x1="350" y1="0" x2="350" y2="500" />
    <line x1="400" y1="0" x2="400" y2="500" />
    <line x1="450" y1="0" x2="450" y2="500" />
    
    <!-- خط مشکی در هر 500 پیکسل -->
    <line x1="500" y1="0" x2="500" y2="500" stroke="black" />
  </g>
</svg>

